<svg width="512" height="512" viewBox="0 0 512 512" fill="none" xmlns="http://www.w3.org/2000/svg">
<rect x="5" y="5" width="492.691" height="492.691" rx="29" fill="#F560B8" stroke="black" stroke-width="10"/>
<g style="mix-blend-mode:multiply">
<path d="M406.39 211.373L274.001 61.9171C272.363 60.0671 270.371 58.59 268.153 57.5796C265.935 56.5692 263.538 56.0474 261.115 56.0474C258.692 56.0474 256.296 56.5692 254.077 57.5796C251.859 58.59 249.868 60.0671 248.229 61.9171L115.841 211.373C113.543 213.966 112.024 217.196 111.467 220.669C110.91 224.142 111.341 227.708 112.706 230.932C114.072 234.156 116.313 236.899 119.156 238.825C122 240.752 125.323 241.779 128.72 241.782H167.778V426.835C167.778 432.844 170.082 438.607 174.182 442.856C178.282 447.106 183.843 449.493 189.642 449.493H332.589C338.388 449.493 343.949 447.106 348.049 442.856C352.149 438.607 354.452 432.844 354.452 426.835V241.782H393.511C396.908 241.779 400.231 240.752 403.074 238.825C405.918 236.899 408.159 234.156 409.524 230.932C410.89 227.708 411.32 224.142 410.764 220.669C410.207 217.196 408.687 213.966 406.39 211.373Z" fill="black"/>
<path d="M400.39 209.373L268.001 59.9171C266.363 58.0671 264.371 56.59 262.153 55.5796C259.935 54.5692 257.538 54.0474 255.115 54.0474C252.692 54.0474 250.296 54.5692 248.077 55.5796C245.859 56.59 243.868 58.0671 242.229 59.9171L109.841 209.373C107.543 211.966 106.024 215.196 105.467 218.669C104.91 222.142 105.341 225.708 106.706 228.932C108.072 232.156 110.313 234.899 113.156 236.825C116 238.752 119.323 239.779 122.72 239.782H161.778V424.835C161.778 430.844 164.082 436.607 168.182 440.856C172.282 445.106 177.843 447.493 183.642 447.493H326.589C332.388 447.493 337.949 445.106 342.049 440.856C346.149 436.607 348.452 430.844 348.452 424.835V239.782H387.511C390.908 239.779 394.231 238.752 397.074 236.825C399.918 234.899 402.159 232.156 403.524 228.932C404.89 225.708 405.32 222.142 404.764 218.669C404.207 215.196 402.687 211.966 400.39 209.373Z" stroke="black" stroke-width="2.682" stroke-miterlimit="10"/>
</g>
<path d="M390.736 200.63L258.347 51.1744C256.709 49.3244 254.717 47.8474 252.499 46.8369C250.281 45.8265 247.884 45.3047 245.461 45.3047C243.038 45.3047 240.642 45.8265 238.423 46.8369C236.205 47.8474 234.214 49.3244 232.575 51.1744L100.187 200.63C97.8892 203.223 96.3695 206.454 95.8129 209.927C95.2564 213.4 95.687 216.966 97.0524 220.19C98.4177 223.413 100.659 226.156 103.502 228.082C106.346 230.009 109.669 231.037 113.066 231.04H152.124V416.092C152.124 422.101 154.428 427.865 158.528 432.114C162.628 436.363 168.189 438.75 173.987 438.75H316.935C322.734 438.75 328.295 436.363 332.395 432.114C336.495 427.865 338.798 422.101 338.798 416.092V231.04H377.857C381.254 231.037 384.577 230.009 387.42 228.082C390.264 226.156 392.505 223.413 393.87 220.19C395.235 216.966 395.666 213.4 395.11 209.927C394.553 206.454 393.033 203.223 390.736 200.63Z" fill="#F4E401"/>
<path d="M390.736 200.63L258.347 51.1744C256.709 49.3244 254.717 47.8474 252.499 46.8369C250.281 45.8265 247.884 45.3047 245.461 45.3047C243.038 45.3047 240.642 45.8265 238.423 46.8369C236.205 47.8474 234.214 49.3244 232.575 51.1744L100.187 200.63C97.8892 203.223 96.3695 206.454 95.8129 209.927C95.2564 213.4 95.687 216.966 97.0524 220.19C98.4177 223.413 100.659 226.156 103.502 228.082C106.346 230.009 109.669 231.037 113.066 231.04H152.124V416.092C152.124 422.101 154.428 427.865 158.528 432.114C162.628 436.363 168.189 438.75 173.987 438.75H316.935C322.734 438.75 328.295 436.363 332.395 432.114C336.495 427.865 338.798 422.101 338.798 416.092V231.04H377.857C381.254 231.037 384.577 230.009 387.42 228.082C390.264 226.156 392.505 223.413 393.87 220.19C395.235 216.966 395.666 213.4 395.11 209.927C394.553 206.454 393.033 203.223 390.736 200.63Z" stroke="black" stroke-width="11" stroke-miterlimit="10"/>
</svg>
