<svg width="38" height="54" viewBox="0 0 38 54" fill="none" xmlns="http://www.w3.org/2000/svg">
<path d="M0.485718 29.0429C0.485718 28.7667 0.709575 28.5429 0.985718 28.5429H10.7857C11.0619 28.5429 11.2857 28.7667 11.2857 29.0429V44.2429C11.2857 44.519 11.0619 44.7429 10.7857 44.7429H0.985718C0.709576 44.7429 0.485718 44.519 0.485718 44.2429V29.0429Z" fill="black"/>
<path d="M26.7143 34.4429C26.7143 34.1667 26.9381 33.9429 27.2143 33.9429H37.0143C37.2904 33.9429 37.5143 34.1667 37.5143 34.4429V44.2429C37.5143 44.519 37.2904 44.7429 37.0143 44.7429H27.2143C26.9381 44.7429 26.7143 44.519 26.7143 44.2429V34.4429Z" fill="black"/>
<path d="M13.6 18.2429C13.6 17.9667 13.8239 17.7429 14.1 17.7429H23.9C24.1761 17.7429 24.4 17.9667 24.4 18.2429V44.2429C24.4 44.519 24.1761 44.7429 23.9 44.7429H14.1C13.8239 44.7429 13.6 44.519 13.6 44.2429V18.2429Z" fill="black"/>
<path d="M19.0683 0C16.9093 0 15.1429 1.76645 15.1429 3.92545C15.1429 6.08444 16.9093 7.85089 19.0683 7.85089C21.2273 7.85089 22.9938 6.08444 22.9938 3.92545C22.9938 1.76645 21.2273 0 19.0683 0ZM17.1056 9.4407V15.7018L19.0683 13.7391L21.031 15.7018V9.4407C20.4226 9.6566 19.7553 9.81362 19.0683 9.81362C18.3814 9.81362 17.714 9.6566 17.1056 9.4407Z" fill="black"/>
<path d="M0.485718 48.6H37.5143V54H0.485718V48.6Z" fill="black"/>
</svg>
